<?xml version="1.0" encoding="utf-8"?>
<!-- Generator: Adobe Illustrator 16.0.0, SVG Export Plug-In . SVG Version: 6.00 Build 0)  -->
<!DOCTYPE svg PUBLIC "-//W3C//DTD SVG 1.1//EN" "http://www.w3.org/Graphics/SVG/1.1/DTD/svg11.dtd">
<svg version="1.1" id="Layer_1" xmlns="http://www.w3.org/2000/svg" xmlns:xlink="http://www.w3.org/1999/xlink" x="0px" y="0px"
	 width="1190.551px" height="841.891px" viewBox="0 0 1190.551 841.891" enable-background="new 0 0 1190.551 841.891"
	 xml:space="preserve">
<line fill="none" stroke="#FFFFFF" stroke-width="23.4573" stroke-linecap="round" stroke-linejoin="round" stroke-miterlimit="3.8637" x1="569.657" y1="755.929" x2="629.595" y2="524.468"/>
<path fill="#FFFFFF" stroke="#FFFFFF" stroke-width="1.3459" stroke-miterlimit="3.8637" d="M598.919,516.915
	c0,0,86.643-14.38,126.905-19.461c0,0,39.286-0.035,2.933,20.252l-94.273,12.965L598.919,516.915z"/>
<line fill="none" stroke="#FFFFFF" stroke-width="23.4573" stroke-linecap="round" stroke-linejoin="round" stroke-miterlimit="3.8637" x1="619.135" y1="594.792" x2="707.632" y2="578.04"/>
<path fill="#FFFFFF" d="M657.027,641.176c0,0-1.894-15.579,22.638-12.793c0,0,14.694,5.943,1.481,27.285
	c-62.396,100.787,21.567,105.461,83.965,36.633l-18.192,37.293c-49.802,36.021-133.767,31.535-105.532-35.782L657.027,641.176z"/>
<line fill="none" stroke="#FFFFFF" stroke-width="23.4573" stroke-linecap="round" stroke-linejoin="round" stroke-miterlimit="3.8637" x1="810.467" y1="617.95" x2="758.443" y2="732.143"/>
<polygon fill="#FFFFFF" stroke="#FFFFFF" stroke-width="1.3459" stroke-miterlimit="3.8637" points="786.068,697.456 
	846.111,665.676 848.333,673.985 778.232,715.26 "/>
<path fill="none" stroke="#FFFFFF" stroke-width="23.4573" stroke-linecap="round" stroke-linejoin="round" stroke-miterlimit="3.8637" d="
	M888.833,607.092c0,0-83.552,51.975-8.89,76.051c0,0,69.146,10.009-2.223,38.145L797.46,755.37"/>
<path fill="#FFFFFF" d="M1003.667,633.293c0,0,13.747-30.26,53.506-37.719C1060.472,610.722,1040.618,624.739,1003.667,633.293z
	 M940.117,671.01c-65.03,37.719-11.523,67.318-11.523,67.318c49.391,19.59,107.014-10.857,107.014-10.857
	c39.018-19.592,55.729-52.637,55.729-52.637l-36.385,26.012c-65.359,48.387-105.531,27.476-105.531,27.476
	c-42.723-25.775,40.5-72.229,40.5-72.229c20.827-5.099,83.965-38.993,83.965-38.993c39.761-24.926,0.74-34.084,0.74-34.084
	c-76.144-1.272-120.019,70.527-120.019,70.527c-17.863,3.211-13.007,9.584-13.007,9.584L940.117,671.01z"/>
<g>
	<g>
		<path fill-rule="evenodd" clip-rule="evenodd" fill="#FFFFFF" d="M584.533,357.308C534.895,203.034,613.697,82.837,779.179,82.837
			h313.998l-75.213,106.178H769.806c-85.057,0-109.574,108.089-41.824,168.293H584.533z"/>
		<g>
			<path fill-rule="evenodd" clip-rule="evenodd" fill="#FFFFFF" d="M333.172,381.691h628.346v-48.666c0,0,0.906-7.664-16.232-7.664
				H756.926l70.752-92.837h259.58v255.603H333.172V381.691z"/>
		</g>
	</g>
	<path fill-rule="evenodd" clip-rule="evenodd" fill="#FFFFFF" d="M178.27,62.42h322.583c30.99,0,53.428,4.528,67.313,13.583
		s20.827,23.98,20.827,44.792c0,12.67-8.149,29.414-24.449,50.233c-16.301,20.812-34.882,43.819-55.71,69.008
		c-20.828,25.188-42.293,56.48-64.412,93.895c-22.119,37.404-42.377,83.109-60.791,137.108
		c-7.764,23.83-13.247,43.586-16.468,59.266c-3.236,15.695-6.792,36.055-10.665,61.107c-3.874,25.039-7.277,44.189-10.163,57.453
		c-6.792,30.789-16.401,52.121-28.827,64.045s-28.978,17.877-49.639,17.877c-19.704,0-35.518-6.424-47.475-19.236
		c-11.939-12.811-17.91-31.727-17.91-56.748c0-19.318,4.359-45.547,13.08-78.717c8.721-33.172,22.926-72.881,42.629-119.166
		c19.688-46.284,44.306-93.777,73.854-142.476c29.549-48.699,64.664-97.172,105.348-145.418H178.27
		c-27.134,0-47.393-4.612-60.809-13.827c-13.381-9.224-20.089-23.662-20.089-43.325c0-20.87,7.11-34.328,21.298-40.374
		C132.891,65.447,152.747,62.42,178.27,62.42z"/>
</g>
</svg>
